<mxfile host="Electron" modified="2024-06-24T18:09:12.335Z" agent="Mozilla/5.0 (Windows NT 10.0; Win64; x64) AppleWebKit/537.36 (KHTML, like Gecko) draw.io/24.6.1 Chrome/124.0.6367.207 Electron/30.0.6 Safari/537.36" etag="OgI6c5tIR62qE8nOPI0u" version="24.6.1" type="device">
  <diagram name="Page-1" id="ZeC4jvaZgytbzBh5yYsP">
    <mxGraphModel dx="1050" dy="673" grid="0" gridSize="10" guides="0" tooltips="1" connect="1" arrows="1" fold="1" page="1" pageScale="1" pageWidth="850" pageHeight="1100" math="0" shadow="0">
      <root>
        <mxCell id="0" />
        <mxCell id="1" parent="0" />
        <mxCell id="u45rbWj0UBaBpOOVPH2p-2" value="English Dataset" style="shape=cylinder;whiteSpace=wrap;html=1;boundedLbl=1;backgroundOutline=1;sketch=1;hachureGap=4;jiggle=2;curveFitting=1;fontFamily=Architects Daughter;fontSource=https%3A%2F%2Ffonts.googleapis.com%2Fcss%3Ffamily%3DArchitects%2BDaughter;fontStyle=1" vertex="1" parent="1">
          <mxGeometry x="20" y="20" width="60" height="80" as="geometry" />
        </mxCell>
        <mxCell id="u45rbWj0UBaBpOOVPH2p-3" value="&lt;span&gt;read_dataset_en&lt;/span&gt;" style="html=1;dashed=0;whiteSpace=wrap;sketch=1;hachureGap=4;jiggle=2;curveFitting=1;fontFamily=Architects Daughter;fontSource=https%3A%2F%2Ffonts.googleapis.com%2Fcss%3Ffamily%3DArchitects%2BDaughter;fontStyle=1" vertex="1" parent="1">
          <mxGeometry x="120" y="35" width="140" height="50" as="geometry" />
        </mxCell>
        <mxCell id="u45rbWj0UBaBpOOVPH2p-4" value="" style="endArrow=classic;html=1;rounded=0;sketch=1;hachureGap=4;jiggle=2;curveFitting=1;fontFamily=Architects Daughter;fontSource=https%3A%2F%2Ffonts.googleapis.com%2Fcss%3Ffamily%3DArchitects%2BDaughter;exitX=1;exitY=0.5;exitDx=0;exitDy=0;entryX=0;entryY=0.5;entryDx=0;entryDy=0;strokeWidth=2;fontStyle=1" edge="1" parent="1" source="u45rbWj0UBaBpOOVPH2p-2" target="u45rbWj0UBaBpOOVPH2p-3">
          <mxGeometry width="50" height="50" relative="1" as="geometry">
            <mxPoint x="130" y="350" as="sourcePoint" />
            <mxPoint x="180" y="300" as="targetPoint" />
          </mxGeometry>
        </mxCell>
        <mxCell id="u45rbWj0UBaBpOOVPH2p-5" value="Temporary Format (CSV)" style="shape=cylinder;whiteSpace=wrap;html=1;boundedLbl=1;backgroundOutline=1;sketch=1;hachureGap=4;jiggle=2;curveFitting=1;fontFamily=Architects Daughter;fontSource=https%3A%2F%2Ffonts.googleapis.com%2Fcss%3Ffamily%3DArchitects%2BDaughter;fontStyle=1" vertex="1" parent="1">
          <mxGeometry x="150" y="139" width="80" height="80" as="geometry" />
        </mxCell>
        <mxCell id="u45rbWj0UBaBpOOVPH2p-6" value="" style="endArrow=classic;html=1;rounded=0;sketch=1;hachureGap=4;jiggle=2;curveFitting=1;fontFamily=Architects Daughter;fontSource=https%3A%2F%2Ffonts.googleapis.com%2Fcss%3Ffamily%3DArchitects%2BDaughter;entryX=0.5;entryY=0;entryDx=0;entryDy=0;strokeWidth=2;exitX=0.5;exitY=1;exitDx=0;exitDy=0;fontStyle=1" edge="1" parent="1" source="u45rbWj0UBaBpOOVPH2p-3" target="u45rbWj0UBaBpOOVPH2p-5">
          <mxGeometry width="50" height="50" relative="1" as="geometry">
            <mxPoint x="260" y="160" as="sourcePoint" />
            <mxPoint x="310" y="110" as="targetPoint" />
          </mxGeometry>
        </mxCell>
        <mxCell id="u45rbWj0UBaBpOOVPH2p-7" value="&lt;span&gt;translator_marian&lt;/span&gt;" style="html=1;dashed=0;whiteSpace=wrap;sketch=1;hachureGap=4;jiggle=2;curveFitting=1;fontFamily=Architects Daughter;fontSource=https%3A%2F%2Ffonts.googleapis.com%2Fcss%3Ffamily%3DArchitects%2BDaughter;fontStyle=1" vertex="1" parent="1">
          <mxGeometry x="330" y="92" width="110" height="50" as="geometry" />
        </mxCell>
        <mxCell id="u45rbWj0UBaBpOOVPH2p-8" value="&lt;span&gt;translator_t5&lt;/span&gt;" style="html=1;dashed=0;whiteSpace=wrap;sketch=1;hachureGap=4;jiggle=2;curveFitting=1;fontFamily=Architects Daughter;fontSource=https%3A%2F%2Ffonts.googleapis.com%2Fcss%3Ffamily%3DArchitects%2BDaughter;fontStyle=1" vertex="1" parent="1">
          <mxGeometry x="334" y="168" width="110" height="50" as="geometry" />
        </mxCell>
        <mxCell id="u45rbWj0UBaBpOOVPH2p-9" value="&lt;span&gt;translator_nllb&lt;/span&gt;" style="html=1;dashed=0;whiteSpace=wrap;sketch=1;hachureGap=4;jiggle=2;curveFitting=1;fontFamily=Architects Daughter;fontSource=https%3A%2F%2Ffonts.googleapis.com%2Fcss%3Ffamily%3DArchitects%2BDaughter;fontStyle=1" vertex="1" parent="1">
          <mxGeometry x="330" y="252" width="110" height="50" as="geometry" />
        </mxCell>
        <mxCell id="u45rbWj0UBaBpOOVPH2p-13" value="&lt;span&gt;PT_BR Translation&lt;/span&gt;" style="shape=cylinder;whiteSpace=wrap;html=1;boundedLbl=1;backgroundOutline=1;sketch=1;hachureGap=4;jiggle=2;curveFitting=1;fontFamily=Architects Daughter;fontSource=https%3A%2F%2Ffonts.googleapis.com%2Fcss%3Ffamily%3DArchitects%2BDaughter;fontStyle=1" vertex="1" parent="1">
          <mxGeometry x="612" y="150" width="70" height="85" as="geometry" />
        </mxCell>
        <mxCell id="u45rbWj0UBaBpOOVPH2p-14" value="" style="endArrow=classic;html=1;rounded=0;sketch=1;hachureGap=4;jiggle=2;curveFitting=1;fontFamily=Architects Daughter;fontSource=https%3A%2F%2Ffonts.googleapis.com%2Fcss%3Ffamily%3DArchitects%2BDaughter;entryX=0;entryY=0.5;entryDx=0;entryDy=0;exitX=1;exitY=0.5;exitDx=0;exitDy=0;fontStyle=1;strokeWidth=2;" edge="1" parent="1" source="u45rbWj0UBaBpOOVPH2p-8" target="u45rbWj0UBaBpOOVPH2p-13">
          <mxGeometry width="50" height="50" relative="1" as="geometry">
            <mxPoint x="455" y="203" as="sourcePoint" />
            <mxPoint x="500" y="150" as="targetPoint" />
          </mxGeometry>
        </mxCell>
        <mxCell id="u45rbWj0UBaBpOOVPH2p-15" value="" style="endArrow=classic;html=1;rounded=0;sketch=1;hachureGap=4;jiggle=2;curveFitting=1;fontFamily=Architects Daughter;fontSource=https%3A%2F%2Ffonts.googleapis.com%2Fcss%3Ffamily%3DArchitects%2BDaughter;exitX=1;exitY=0.5;exitDx=0;exitDy=0;entryX=0;entryY=0.3;entryDx=0;entryDy=0;fontStyle=1;strokeWidth=2;" edge="1" parent="1" source="u45rbWj0UBaBpOOVPH2p-7" target="u45rbWj0UBaBpOOVPH2p-13">
          <mxGeometry width="50" height="50" relative="1" as="geometry">
            <mxPoint x="460" y="150" as="sourcePoint" />
            <mxPoint x="510" y="100" as="targetPoint" />
          </mxGeometry>
        </mxCell>
        <mxCell id="u45rbWj0UBaBpOOVPH2p-16" value="" style="endArrow=classic;html=1;rounded=0;sketch=1;hachureGap=4;jiggle=2;curveFitting=1;fontFamily=Architects Daughter;fontSource=https%3A%2F%2Ffonts.googleapis.com%2Fcss%3Ffamily%3DArchitects%2BDaughter;entryX=0.15;entryY=0.95;entryDx=0;entryDy=0;entryPerimeter=0;exitX=1;exitY=0.5;exitDx=0;exitDy=0;fontStyle=1;strokeWidth=2;" edge="1" parent="1" source="u45rbWj0UBaBpOOVPH2p-9" target="u45rbWj0UBaBpOOVPH2p-13">
          <mxGeometry width="50" height="50" relative="1" as="geometry">
            <mxPoint x="450" y="290" as="sourcePoint" />
            <mxPoint x="500" y="240" as="targetPoint" />
          </mxGeometry>
        </mxCell>
        <mxCell id="u45rbWj0UBaBpOOVPH2p-17" value="evaluator_gemba_dev" style="html=1;dashed=0;whiteSpace=wrap;sketch=1;hachureGap=4;jiggle=2;curveFitting=1;fontFamily=Architects Daughter;fontSource=https%3A%2F%2Ffonts.googleapis.com%2Fcss%3Ffamily%3DArchitects%2BDaughter;fontStyle=1" vertex="1" parent="1">
          <mxGeometry x="595" y="308" width="136" height="50" as="geometry" />
        </mxCell>
        <mxCell id="u45rbWj0UBaBpOOVPH2p-18" value="evaluator_gemba_train" style="html=1;dashed=0;whiteSpace=wrap;sketch=1;hachureGap=4;jiggle=2;curveFitting=1;fontFamily=Architects Daughter;fontSource=https%3A%2F%2Ffonts.googleapis.com%2Fcss%3Ffamily%3DArchitects%2BDaughter;fontStyle=1" vertex="1" parent="1">
          <mxGeometry x="595" y="379" width="136" height="50" as="geometry" />
        </mxCell>
        <mxCell id="u45rbWj0UBaBpOOVPH2p-19" value="evaluator_gemba_tst" style="html=1;dashed=0;whiteSpace=wrap;sketch=1;hachureGap=4;jiggle=2;curveFitting=1;fontFamily=Architects Daughter;fontSource=https%3A%2F%2Ffonts.googleapis.com%2Fcss%3Ffamily%3DArchitects%2BDaughter;fontStyle=1" vertex="1" parent="1">
          <mxGeometry x="596" y="446" width="137" height="50" as="geometry" />
        </mxCell>
        <mxCell id="u45rbWj0UBaBpOOVPH2p-23" value="" style="endArrow=classic;html=1;rounded=0;sketch=1;hachureGap=4;jiggle=2;curveFitting=1;fontFamily=Architects Daughter;fontSource=https%3A%2F%2Ffonts.googleapis.com%2Fcss%3Ffamily%3DArchitects%2BDaughter;exitX=1;exitY=0.3;exitDx=0;exitDy=0;entryX=0;entryY=0.5;entryDx=0;entryDy=0;fontStyle=1;strokeWidth=2;" edge="1" parent="1" source="u45rbWj0UBaBpOOVPH2p-5" target="u45rbWj0UBaBpOOVPH2p-7">
          <mxGeometry width="50" height="50" relative="1" as="geometry">
            <mxPoint x="287" y="238" as="sourcePoint" />
            <mxPoint x="337" y="188" as="targetPoint" />
          </mxGeometry>
        </mxCell>
        <mxCell id="u45rbWj0UBaBpOOVPH2p-24" value="" style="endArrow=classic;html=1;rounded=0;sketch=1;hachureGap=4;jiggle=2;curveFitting=1;fontFamily=Architects Daughter;fontSource=https%3A%2F%2Ffonts.googleapis.com%2Fcss%3Ffamily%3DArchitects%2BDaughter;exitX=1;exitY=0.5;exitDx=0;exitDy=0;entryX=0;entryY=0.5;entryDx=0;entryDy=0;fontStyle=1;strokeWidth=2;" edge="1" parent="1" source="u45rbWj0UBaBpOOVPH2p-5" target="u45rbWj0UBaBpOOVPH2p-8">
          <mxGeometry width="50" height="50" relative="1" as="geometry">
            <mxPoint x="280" y="315" as="sourcePoint" />
            <mxPoint x="330" y="265" as="targetPoint" />
          </mxGeometry>
        </mxCell>
        <mxCell id="u45rbWj0UBaBpOOVPH2p-25" value="" style="endArrow=classic;html=1;rounded=0;sketch=1;hachureGap=4;jiggle=2;curveFitting=1;fontFamily=Architects Daughter;fontSource=https%3A%2F%2Ffonts.googleapis.com%2Fcss%3Ffamily%3DArchitects%2BDaughter;exitX=1;exitY=0.7;exitDx=0;exitDy=0;entryX=0;entryY=0.25;entryDx=0;entryDy=0;fontStyle=1;strokeWidth=2;" edge="1" parent="1" source="u45rbWj0UBaBpOOVPH2p-5" target="u45rbWj0UBaBpOOVPH2p-9">
          <mxGeometry width="50" height="50" relative="1" as="geometry">
            <mxPoint x="288" y="260" as="sourcePoint" />
            <mxPoint x="338" y="210" as="targetPoint" />
          </mxGeometry>
        </mxCell>
        <mxCell id="u45rbWj0UBaBpOOVPH2p-30" value="Rankings + Final Sets" style="shape=cylinder;whiteSpace=wrap;html=1;boundedLbl=1;backgroundOutline=1;sketch=1;hachureGap=4;jiggle=2;curveFitting=1;fontFamily=Architects Daughter;fontSource=https%3A%2F%2Ffonts.googleapis.com%2Fcss%3Ffamily%3DArchitects%2BDaughter;fontStyle=1" vertex="1" parent="1">
          <mxGeometry x="241" y="368" width="103" height="108" as="geometry" />
        </mxCell>
        <mxCell id="u45rbWj0UBaBpOOVPH2p-36" value="publish_dataset_pt" style="html=1;dashed=0;whiteSpace=wrap;sketch=1;hachureGap=4;jiggle=2;curveFitting=1;fontFamily=Architects Daughter;fontSource=https%3A%2F%2Ffonts.googleapis.com%2Fcss%3Ffamily%3DArchitects%2BDaughter;fontStyle=1" vertex="1" parent="1">
          <mxGeometry x="31" y="395" width="145" height="50" as="geometry" />
        </mxCell>
        <mxCell id="u45rbWj0UBaBpOOVPH2p-37" value="" style="endArrow=classic;html=1;rounded=0;sketch=1;hachureGap=4;jiggle=2;curveFitting=1;fontFamily=Architects Daughter;fontSource=https%3A%2F%2Ffonts.googleapis.com%2Fcss%3Ffamily%3DArchitects%2BDaughter;exitX=0;exitY=0.5;exitDx=0;exitDy=0;entryX=1;entryY=0.5;entryDx=0;entryDy=0;strokeWidth=2;" edge="1" parent="1" source="u45rbWj0UBaBpOOVPH2p-30" target="u45rbWj0UBaBpOOVPH2p-36">
          <mxGeometry width="50" height="50" relative="1" as="geometry">
            <mxPoint x="303" y="542" as="sourcePoint" />
            <mxPoint x="353" y="492" as="targetPoint" />
          </mxGeometry>
        </mxCell>
        <mxCell id="u45rbWj0UBaBpOOVPH2p-38" value="Portuguese Dataset" style="shape=cylinder;whiteSpace=wrap;html=1;boundedLbl=1;backgroundOutline=1;sketch=1;hachureGap=4;jiggle=2;curveFitting=1;fontFamily=Architects Daughter;fontSource=https%3A%2F%2Ffonts.googleapis.com%2Fcss%3Ffamily%3DArchitects%2BDaughter;fontStyle=1" vertex="1" parent="1">
          <mxGeometry x="70" y="538" width="69" height="82" as="geometry" />
        </mxCell>
        <mxCell id="u45rbWj0UBaBpOOVPH2p-39" value="" style="endArrow=classic;html=1;rounded=0;sketch=1;hachureGap=4;jiggle=2;curveFitting=1;fontFamily=Architects Daughter;fontSource=https%3A%2F%2Ffonts.googleapis.com%2Fcss%3Ffamily%3DArchitects%2BDaughter;exitX=0.5;exitY=1;exitDx=0;exitDy=0;entryX=0.5;entryY=0;entryDx=0;entryDy=0;fontStyle=1;strokeWidth=2;" edge="1" parent="1" source="u45rbWj0UBaBpOOVPH2p-36" target="u45rbWj0UBaBpOOVPH2p-38">
          <mxGeometry width="50" height="50" relative="1" as="geometry">
            <mxPoint x="120" y="467" as="sourcePoint" />
            <mxPoint x="170" y="417" as="targetPoint" />
          </mxGeometry>
        </mxCell>
        <mxCell id="u45rbWj0UBaBpOOVPH2p-40" value="&lt;b&gt;GPT3.5-Turbo&lt;/b&gt;" style="html=1;dashed=0;whiteSpace=wrap;shape=mxgraph.dfd.externalEntity;sketch=1;hachureGap=4;jiggle=2;curveFitting=1;fontFamily=Architects Daughter;fontSource=https%3A%2F%2Ffonts.googleapis.com%2Fcss%3Ffamily%3DArchitects%2BDaughter;" vertex="1" parent="1">
          <mxGeometry x="407" y="351" width="118" height="106" as="geometry" />
        </mxCell>
        <mxCell id="u45rbWj0UBaBpOOVPH2p-41" value="Id" style="autosize=1;part=1;resizable=0;strokeColor=inherit;fillColor=inherit;gradientColor=inherit;sketch=1;hachureGap=4;jiggle=2;curveFitting=1;fontFamily=Architects Daughter;fontSource=https%3A%2F%2Ffonts.googleapis.com%2Fcss%3Ffamily%3DArchitects%2BDaughter;" vertex="1" parent="u45rbWj0UBaBpOOVPH2p-40">
          <mxGeometry width="20" height="20" relative="1" as="geometry">
            <mxPoint x="15" y="15" as="offset" />
          </mxGeometry>
        </mxCell>
        <mxCell id="u45rbWj0UBaBpOOVPH2p-45" value="" style="endArrow=classic;html=1;rounded=0;sketch=1;hachureGap=4;jiggle=2;curveFitting=1;fontFamily=Architects Daughter;fontSource=https%3A%2F%2Ffonts.googleapis.com%2Fcss%3Ffamily%3DArchitects%2BDaughter;exitX=1;exitY=0.5;exitDx=0;exitDy=0;entryX=1;entryY=0.5;entryDx=0;entryDy=0;" edge="1" parent="1" source="u45rbWj0UBaBpOOVPH2p-13" target="u45rbWj0UBaBpOOVPH2p-17">
          <mxGeometry width="50" height="50" relative="1" as="geometry">
            <mxPoint x="717" y="178" as="sourcePoint" />
            <mxPoint x="767" y="128" as="targetPoint" />
            <Array as="points">
              <mxPoint x="807" y="195" />
              <mxPoint x="807" y="333" />
            </Array>
          </mxGeometry>
        </mxCell>
        <mxCell id="u45rbWj0UBaBpOOVPH2p-46" value="" style="endArrow=classic;html=1;rounded=0;sketch=1;hachureGap=4;jiggle=2;curveFitting=1;fontFamily=Architects Daughter;fontSource=https%3A%2F%2Ffonts.googleapis.com%2Fcss%3Ffamily%3DArchitects%2BDaughter;exitX=1;exitY=0.5;exitDx=0;exitDy=0;entryX=1;entryY=0.5;entryDx=0;entryDy=0;" edge="1" parent="1" source="u45rbWj0UBaBpOOVPH2p-13" target="u45rbWj0UBaBpOOVPH2p-18">
          <mxGeometry width="50" height="50" relative="1" as="geometry">
            <mxPoint x="612" y="587" as="sourcePoint" />
            <mxPoint x="662" y="537" as="targetPoint" />
            <Array as="points">
              <mxPoint x="806" y="193" />
              <mxPoint x="808" y="404" />
            </Array>
          </mxGeometry>
        </mxCell>
        <mxCell id="u45rbWj0UBaBpOOVPH2p-47" value="" style="endArrow=classic;html=1;rounded=0;sketch=1;hachureGap=4;jiggle=2;curveFitting=1;fontFamily=Architects Daughter;fontSource=https%3A%2F%2Ffonts.googleapis.com%2Fcss%3Ffamily%3DArchitects%2BDaughter;exitX=1;exitY=0.5;exitDx=0;exitDy=0;entryX=1;entryY=0.5;entryDx=0;entryDy=0;" edge="1" parent="1" source="u45rbWj0UBaBpOOVPH2p-13" target="u45rbWj0UBaBpOOVPH2p-19">
          <mxGeometry width="50" height="50" relative="1" as="geometry">
            <mxPoint x="611" y="605" as="sourcePoint" />
            <mxPoint x="661" y="555" as="targetPoint" />
            <Array as="points">
              <mxPoint x="805" y="193" />
              <mxPoint x="810" y="471" />
            </Array>
          </mxGeometry>
        </mxCell>
        <mxCell id="u45rbWj0UBaBpOOVPH2p-48" value="" style="endArrow=classic;html=1;rounded=0;sketch=1;hachureGap=4;jiggle=2;curveFitting=1;fontFamily=Architects Daughter;fontSource=https%3A%2F%2Ffonts.googleapis.com%2Fcss%3Ffamily%3DArchitects%2BDaughter;exitX=0;exitY=0.5;exitDx=0;exitDy=0;entryX=0;entryY=0;entryDx=118;entryDy=58;entryPerimeter=0;shape=link;" edge="1" parent="1" source="u45rbWj0UBaBpOOVPH2p-18" target="u45rbWj0UBaBpOOVPH2p-40">
          <mxGeometry width="50" height="50" relative="1" as="geometry">
            <mxPoint x="396" y="595" as="sourcePoint" />
            <mxPoint x="446" y="545" as="targetPoint" />
          </mxGeometry>
        </mxCell>
        <mxCell id="u45rbWj0UBaBpOOVPH2p-49" value="" style="endArrow=classic;html=1;rounded=0;sketch=1;hachureGap=4;jiggle=2;curveFitting=1;fontFamily=Architects Daughter;fontSource=https%3A%2F%2Ffonts.googleapis.com%2Fcss%3Ffamily%3DArchitects%2BDaughter;exitX=0;exitY=0.5;exitDx=0;exitDy=0;entryX=0;entryY=0;entryDx=118;entryDy=82;entryPerimeter=0;shape=link;" edge="1" parent="1" source="u45rbWj0UBaBpOOVPH2p-19" target="u45rbWj0UBaBpOOVPH2p-40">
          <mxGeometry width="50" height="50" relative="1" as="geometry">
            <mxPoint x="550" y="613" as="sourcePoint" />
            <mxPoint x="600" y="563" as="targetPoint" />
          </mxGeometry>
        </mxCell>
        <mxCell id="u45rbWj0UBaBpOOVPH2p-50" value="" style="endArrow=classic;html=1;rounded=0;sketch=1;hachureGap=4;jiggle=2;curveFitting=1;fontFamily=Architects Daughter;fontSource=https%3A%2F%2Ffonts.googleapis.com%2Fcss%3Ffamily%3DArchitects%2BDaughter;exitX=0;exitY=0.5;exitDx=0;exitDy=0;entryX=0;entryY=0;entryDx=118;entryDy=34;entryPerimeter=0;shape=link;" edge="1" parent="1" source="u45rbWj0UBaBpOOVPH2p-17" target="u45rbWj0UBaBpOOVPH2p-40">
          <mxGeometry width="50" height="50" relative="1" as="geometry">
            <mxPoint x="391" y="400" as="sourcePoint" />
            <mxPoint x="441" y="350" as="targetPoint" />
          </mxGeometry>
        </mxCell>
        <mxCell id="u45rbWj0UBaBpOOVPH2p-53" value="" style="endArrow=classic;html=1;rounded=0;sketch=1;hachureGap=4;jiggle=2;curveFitting=1;fontFamily=Architects Daughter;fontSource=https%3A%2F%2Ffonts.googleapis.com%2Fcss%3Ffamily%3DArchitects%2BDaughter;exitX=0.5;exitY=1;exitDx=0;exitDy=0;entryX=0.5;entryY=1;entryDx=0;entryDy=0;shape=flexArrow;strokeWidth=2;" edge="1" parent="1" source="u45rbWj0UBaBpOOVPH2p-19" target="u45rbWj0UBaBpOOVPH2p-30">
          <mxGeometry width="50" height="50" relative="1" as="geometry">
            <mxPoint x="674" y="587" as="sourcePoint" />
            <mxPoint x="724" y="537" as="targetPoint" />
            <Array as="points">
              <mxPoint x="667" y="574" />
              <mxPoint x="293" y="577" />
            </Array>
          </mxGeometry>
        </mxCell>
        <mxCell id="u45rbWj0UBaBpOOVPH2p-56" value="&lt;b style=&quot;font-size: 30px;&quot;&gt;&lt;font style=&quot;font-size: 30px;&quot;&gt;I&lt;/font&gt;&lt;/b&gt;" style="text;html=1;align=center;verticalAlign=middle;whiteSpace=wrap;rounded=0;fontFamily=Architects Daughter;fontSource=https%3A%2F%2Ffonts.googleapis.com%2Fcss%3Ffamily%3DArchitects%2BDaughter;fontSize=30;" vertex="1" parent="1">
          <mxGeometry x="186" y="89" width="60" height="30" as="geometry" />
        </mxCell>
        <mxCell id="u45rbWj0UBaBpOOVPH2p-57" value="&lt;b style=&quot;font-size: 30px;&quot;&gt;&lt;font style=&quot;font-size: 30px;&quot;&gt;II&lt;/font&gt;&lt;/b&gt;" style="text;html=1;align=center;verticalAlign=middle;whiteSpace=wrap;rounded=0;fontFamily=Architects Daughter;fontSource=https%3A%2F%2Ffonts.googleapis.com%2Fcss%3Ffamily%3DArchitects%2BDaughter;fontSize=30;" vertex="1" parent="1">
          <mxGeometry x="350" y="45" width="60" height="30" as="geometry" />
        </mxCell>
        <mxCell id="u45rbWj0UBaBpOOVPH2p-58" value="&lt;b style=&quot;font-size: 30px;&quot;&gt;&lt;font style=&quot;font-size: 30px;&quot;&gt;III&lt;/font&gt;&lt;/b&gt;" style="text;html=1;align=center;verticalAlign=middle;whiteSpace=wrap;rounded=0;fontFamily=Architects Daughter;fontSource=https%3A%2F%2Ffonts.googleapis.com%2Fcss%3Ffamily%3DArchitects%2BDaughter;fontSize=30;" vertex="1" parent="1">
          <mxGeometry x="743" y="358" width="60" height="30" as="geometry" />
        </mxCell>
        <mxCell id="u45rbWj0UBaBpOOVPH2p-59" value="&lt;b style=&quot;font-size: 30px;&quot;&gt;&lt;font style=&quot;font-size: 30px;&quot;&gt;IV&lt;/font&gt;&lt;/b&gt;" style="text;html=1;align=center;verticalAlign=middle;whiteSpace=wrap;rounded=0;fontFamily=Architects Daughter;fontSource=https%3A%2F%2Ffonts.googleapis.com%2Fcss%3Ffamily%3DArchitects%2BDaughter;fontSize=30;" vertex="1" parent="1">
          <mxGeometry x="449" y="527" width="60" height="30" as="geometry" />
        </mxCell>
        <mxCell id="u45rbWj0UBaBpOOVPH2p-60" value="&lt;b style=&quot;font-size: 30px;&quot;&gt;&lt;font style=&quot;font-size: 30px;&quot;&gt;V&lt;/font&gt;&lt;/b&gt;" style="text;html=1;align=center;verticalAlign=middle;whiteSpace=wrap;rounded=0;fontFamily=Architects Daughter;fontSource=https%3A%2F%2Ffonts.googleapis.com%2Fcss%3Ffamily%3DArchitects%2BDaughter;fontSize=30;" vertex="1" parent="1">
          <mxGeometry x="94" y="475" width="60" height="30" as="geometry" />
        </mxCell>
      </root>
    </mxGraphModel>
  </diagram>
</mxfile>
